<svg xmlns="http://www.w3.org/2000/svg" width="512" height="512" viewBox="0 0 512 512">
  <defs>
    <radialGradient id="bg" cx="50%" cy="42%" r="70%">
      <stop offset="0" stop-color="#2a3346"/>
      <stop offset="0.6" stop-color="#151a26"/>
      <stop offset="1" stop-color="#0a0d14"/>
    </radialGradient>
    <linearGradient id="gold" x1="0" y1="0" x2="0" y2="1">
      <stop offset="0" stop-color="#fff2b0"/>
      <stop offset="0.35" stop-color="#e8c25a"/>
      <stop offset="0.7" stop-color="#a87a22"/>
      <stop offset="1" stop-color="#6e4c12"/>
    </linearGradient>
    <linearGradient id="goldText" x1="0" y1="0" x2="0" y2="1">
      <stop offset="0" stop-color="#fff4c2"/>
      <stop offset="0.55" stop-color="#e6bd52"/>
      <stop offset="1" stop-color="#9c6f1c"/>
    </linearGradient>
    <linearGradient id="bar" x1="0" y1="0" x2="1" y2="0">
      <stop offset="0" stop-color="#c79621"/>
      <stop offset="1" stop-color="#ffd24a"/>
    </linearGradient>
    <linearGradient id="panel" x1="0" y1="0" x2="0" y2="1">
      <stop offset="0" stop-color="#1b1a17"/>
      <stop offset="1" stop-color="#0d0d0f"/>
    </linearGradient>
    <linearGradient id="parch" x1="0" y1="0" x2="0" y2="1">
      <stop offset="0" stop-color="#f1e0b0"/>
      <stop offset="1" stop-color="#c9a86a"/>
    </linearGradient>
    <radialGradient id="poi" cx="40%" cy="35%" r="70%">
      <stop offset="0" stop-color="#fff3a0"/>
      <stop offset="0.6" stop-color="#ffcc1a"/>
      <stop offset="1" stop-color="#a87400"/>
    </radialGradient>
    <radialGradient id="poiDark" cx="40%" cy="35%" r="70%">
      <stop offset="0" stop-color="#7a2a1a"/>
      <stop offset="1" stop-color="#2a0c06"/>
    </radialGradient>
    <filter id="soft" x="-30%" y="-30%" width="160%" height="160%">
      <feGaussianBlur stdDeviation="9"/>
    </filter>
    <filter id="glow" x="-50%" y="-50%" width="200%" height="200%">
      <feGaussianBlur stdDeviation="10"/>
    </filter>
  </defs>
  <rect width="512" height="512" rx="72" fill="url(#bg)"/>

  <rect x="76" y="40" width="360" height="300" rx="22" fill="#000" opacity="0.7" filter="url(#soft)" transform="translate(0 7)"/>
  <g>
    <rect x="76" y="40" width="360" height="300" rx="22" fill="url(#gold)"/>
    <rect x="82" y="46" width="348" height="288" rx="17" fill="url(#panel)"/>
  </g>
  <rect x="82" y="46" width="348" height="52" rx="17" fill="#ffca30" opacity="0.08"/>
  <line x1="82" y1="98" x2="430" y2="98" stroke="#c79621" stroke-width="2" opacity="0.7"/>
  <text x="104" y="84" font-family="Georgia, 'DejaVu Serif', serif" font-size="30" fill="url(#goldText)">Quests</text>
  <path d="M392 66 l10 10 10 -10" fill="none" stroke="#b9a37a" stroke-width="4" stroke-linecap="round" stroke-linejoin="round" transform="translate(0 -2) rotate(180 402 71)"/>
  <!-- quest 1 -->
  <circle cx="118" cy="134" r="16" fill="url(#poi)" stroke="#3a2708" stroke-width="2"/>
  <text x="118" y="144" text-anchor="middle" font-family="Georgia, serif" font-weight="bold" font-size="26" fill="#3a2708">!</text>
  <rect x="148" y="122" width="200" height="14" rx="7" fill="#ffd100"/>
  <rect x="148" y="148" width="150" height="9" rx="4.5" fill="#d6d2c8" opacity="0.8"/>
  <rect x="148" y="166" width="262" height="7" rx="3.5" fill="#ffffff" opacity="0.1"/>
  <rect x="148" y="166" width="184" height="7" rx="3.5" fill="url(#bar)"/>
  <!-- quest 2 -->
  <circle cx="118" cy="210" r="16" fill="url(#poiDark)" stroke="#c79621" stroke-width="2"/>
  <circle cx="111" cy="210" r="2.6" fill="#f3d27a"/><circle cx="118" cy="210" r="2.6" fill="#f3d27a"/><circle cx="125" cy="210" r="2.6" fill="#f3d27a"/>
  <rect x="148" y="198" width="230" height="14" rx="7" fill="#ffd100"/>
  <rect x="148" y="224" width="170" height="9" rx="4.5" fill="#d6d2c8" opacity="0.8"/>
  <rect x="148" y="242" width="262" height="7" rx="3.5" fill="#ffffff" opacity="0.1"/>
  <rect x="148" y="242" width="96" height="7" rx="3.5" fill="url(#bar)"/>
  <!-- quest 3: complete -->
  <circle cx="118" cy="286" r="16" fill="url(#poi)" stroke="#3a2708" stroke-width="2"/>
  <text x="118" y="296" text-anchor="middle" font-family="Georgia, serif" font-weight="bold" font-size="26" fill="#3a2708">?</text>
  <rect x="148" y="274" width="180" height="14" rx="7" fill="#ffd100"/>
  <path d="M150 307 l7 7 13 -14" fill="none" stroke="#5fd36b" stroke-width="4" stroke-linecap="round" stroke-linejoin="round"/>
  <rect x="178" y="302" width="150" height="9" rx="4.5" fill="#5fd36b" opacity="0.85"/>
  <text x="256" y="420" text-anchor="middle" font-family="Georgia, 'DejaVu Serif', serif" font-weight="bold" font-size="66" fill="url(#goldText)" stroke="#3a2708" stroke-width="2" letter-spacing="3">FOREVER</text>
  <text x="256" y="470" text-anchor="middle" font-family="Georgia, 'DejaVu Serif', serif" font-weight="bold" font-size="38" fill="url(#goldText)" stroke="#3a2708" stroke-width="1" letter-spacing="6">QUEST LOG</text>
</svg>
